<?xml version="1.0" encoding="UTF-8"?>
<svg width="600" height="338" viewBox="0 0 600 338" fill="none" xmlns="http://www.w3.org/2000/svg">
  <!-- 背景 -->
  <rect width="600" height="338" fill="#F59E0B" />
  
  <!-- 装饰性图形 -->
  <path d="M500 0L600 0L600 100Z" fill="#FBBF24" opacity="0.5"/>
  <path d="M0 238L100 338L0 338Z" fill="#FCD34D" opacity="0.3"/>
  
  <!-- 文章图标组 -->
  <g transform="translate(150,70)">
    <!-- 主要文档图标 -->
    <rect x="50" y="0" width="200" height="250" rx="10" stroke="white" stroke-width="4" fill="none"/>
    
    <!-- 文本线条 -->
    <g stroke="white" stroke-width="3">
      <line x1="80" y1="40" x2="220" y2="40" />
      <line x1="80" y1="70" x2="200" y2="70" />
      <line x1="80" y1="100" x2="180" y2="100" />
      
      <line x1="80" y1="140" x2="220" y2="140" />
      <line x1="80" y1="170" x2="200" y2="170" />
      <line x1="80" y1="200" x2="190" y2="200" />
    </g>
    
    <!-- 装饰性音符 -->
    <g transform="translate(250,50)" fill="white" opacity="0.6">
      <circle cx="0" cy="0" r="4" />
      <circle cx="20" cy="-10" r="4" />
      <circle cx="40" cy="0" r="4" />
      <path d="M0 0L20 -10L40 0" stroke="white" stroke-width="2"/>
    </g>
  </g>
  
  <!-- 装饰性小图标 -->
  <g transform="translate(450,150)">
    <!-- 音乐图标 -->
    <circle cx="30" cy="30" r="25" stroke="white" stroke-width="3" fill="none"/>
    <path d="M20 20L40 20M20 30L40 30M20 40L40 40" stroke="white" stroke-width="3"/>
  </g>
  
  <g transform="translate(80,150)">
    <!-- AI图标 -->
    <circle cx="30" cy="30" r="25" stroke="white" stroke-width="3" fill="none"/>
    <text x="30" y="40" font-family="Arial" font-size="20" fill="white" text-anchor="middle">AI</text>
  </g>
</svg> 