<?xml version="1.0" encoding="UTF-8"?>
<svg width="24" height="24" viewBox="0 0 24 24" fill="none" xmlns="http://www.w3.org/2000/svg">
    <path d="M1.41421 1.41421C2.19526 0.633165 3.4616 0.633165 4.24264 1.41421L22.5858 19.7574C23.3668 20.5384 23.3668 21.8047 22.5858 22.5858C21.8047 23.3668 20.5384 23.3668 19.7574 22.5858L1.41421 4.24264C0.633165 3.4616 0.633165 2.19526 1.41421 1.41421Z" fill="white"/>
    <path d="M12 4C7.5 4 3.9 6.4 2.1 9.9C1.8 10.5 2.2 11.1 2.9 11.1H3.8C4.1 11.1 4.4 10.9 4.5 10.6C5.9 7.8 8.7 6 12 6C12.3 6 12.7 6 13 6.1L15.2 8.3C14.2 7.8 13.1 7.5 12 7.5C8.4 7.5 5.5 10.4 5.5 14C5.5 14.8 5.7 15.5 5.9 16.2L7.6 17.9C8.7 18.7 10 19 11.4 19C12.7 19 14 18.7 15.1 18L17.1 20C15.6 20.7 13.9 21 12 21C9.3 21 6.8 20.1 4.8 18.6L3.2 17C1.3 15.4 0 13.3 0 11C0 7.1 4 4 12 4ZM21.1 14.5C21.3 14.9 21.4 15.4 21.4 15.9C21.4 17.1 20.9 18.2 20.1 19L18.2 17.1C18.7 16.8 19 16.2 19 15.5C19 14.4 18.1 13.5 17 13.5C16.6 13.5 16.2 13.6 15.9 13.8L14.1 12C14.7 11.8 15.3 11.6 16 11.6C18.8 11.6 21.1 13.9 21.1 14.5Z" fill="white"/>
</svg> 