<?xml version="1.0" encoding="UTF-8"?>
<svg width="512" height="512" viewBox="0 0 512 512" fill="none" xmlns="http://www.w3.org/2000/svg">
    <path fill-rule="evenodd" clip-rule="evenodd" d="
        M256 0C397.385 0 512 114.615 512 256C512 397.385 397.385 512 256 512C114.615 512 0 397.385 0 256C0 114.615 114.615 0 256 0ZM256 64C353.202 64 432 142.798 432 240C432 337.202 353.202 416 256 416C158.798 416 80 337.202 80 240C80 142.798 158.798 64 256 64ZM376 160C389.255 160 400 170.745 400 184C400 197.255 389.255 208 376 208C362.745 208 352 197.255 352 184C352 170.745 362.745 160 376 160ZM256 128C313.438 128 360 174.562 360 232C360 289.438 313.438 336 256 336C198.562 336 152 289.438 152 232C152 174.562 198.562 128 256 128Z
    " fill="black"/>
</svg> 