<?xml version="1.0" encoding="UTF-8"?><svg width="1200" height="630" viewBox="0 0 1200 630" xmlns="http://www.w3.org/2000/svg"><defs><linearGradient id="bgGradient" x1="0%" y1="0%" x2="100%" y2="100%"><stop offset="0%" style="stop-color:#8E2DE2;stop-opacity:1"/><stop offset="100%" style="stop-color:#4A00E0;stop-opacity:1"/></linearGradient><linearGradient id="shapeGradient" x1="0%" y1="0%" x2="100%" y2="0%"><stop offset="0%" style="stop-color:#FFFFFF;stop-opacity:0.2"/><stop offset="50%" style="stop-color:#FFFFFF;stop-opacity:0.4"/><stop offset="100%" style="stop-color:#FFFFFF;stop-opacity:0.2"/></linearGradient></defs><rect width="100%" height="100%" fill="url(#bgGradient)"/><g transform="translate(600,315)" fill="none" stroke="url(#shapeGradient)" opacity="0.6"><path d="M0,0 L100,0 A100,100 0 0,1 70.7,70.7 L0,0" stroke-width="2" transform="rotate(0)"/><path d="M0,0 L100,0 A100,100 0 0,1 70.7,70.7 L0,0" stroke-width="2" transform="rotate(90)"/><path d="M0,0 L100,0 A100,100 0 0,1 70.7,70.7 L0,0" stroke-width="2" transform="rotate(180)"/><path d="M0,0 L100,0 A100,100 0 0,1 70.7,70.7 L0,0" stroke-width="2" transform="rotate(270)"/></g><g fill="#FFFFFF" opacity="0.3"><circle cx="400" cy="200" r="5"/><circle cx="800" cy="200" r="5"/><circle cx="400" cy="430" r="5"/><circle cx="800" cy="430" r="5"/></g><g stroke="#FFFFFF" stroke-width="1" opacity="0.4"><path d="M300,100 C400,100 500,200 600,200 S800,300 900,300" fill="none"/><path d="M300,330 C400,330 500,430 600,430 S800,530 900,530" fill="none"/></g></svg>
