<?xml version="1.0" encoding="UTF-8"?><svg width="1200" height="630" viewBox="0 0 1200 630" xmlns="http://www.w3.org/2000/svg"><defs><linearGradient id="bgGradient" x1="0%" y1="0%" x2="100%" y2="100%"><stop offset="0%" style="stop-color:#0F2027;stop-opacity:1"/><stop offset="50%" style="stop-color:#203A43;stop-opacity:1"/><stop offset="100%" style="stop-color:#2C5364;stop-opacity:1"/></linearGradient><linearGradient id="shapeGradient" x1="0%" y1="0%" x2="100%" y2="0%"><stop offset="0%" style="stop-color:#FFFFFF;stop-opacity:0.1"/><stop offset="50%" style="stop-color:#FFFFFF;stop-opacity:0.3"/><stop offset="100%" style="stop-color:#FFFFFF;stop-opacity:0.1"/></linearGradient></defs><rect width="100%" height="100%" fill="url(#bgGradient)"/><g transform="translate(600,315)" fill="none" stroke="#FFFFFF" opacity="0.6"><path d="M-100,-100 L100,-100 L100,100 L-100,100 Z" stroke-width="2" transform="rotate(45)"/><line x1="-200" y1="0" x2="200" y2="0" stroke-width="1"/><line x1="0" y1="-200" x2="0" y2="200" stroke-width="1"/><circle cx="0" cy="0" r="150" stroke-width="1"/><circle cx="0" cy="0" r="120" stroke-width="1"/><circle cx="0" cy="0" r="90" stroke-width="1"/></g><g fill="#FFFFFF" opacity="0.4"><circle cx="300" cy="200" r="3"/><circle cx="320" cy="200" r="3"/><circle cx="340" cy="200" r="3"/><circle cx="300" cy="220" r="3"/><circle cx="320" cy="220" r="3"/><circle cx="340" cy="220" r="3"/><circle cx="300" cy="240" r="3"/><circle cx="320" cy="240" r="3"/><circle cx="340" cy="240" r="3"/><circle cx="860" cy="390" r="3"/><circle cx="880" cy="390" r="3"/><circle cx="900" cy="390" r="3"/><circle cx="860" cy="410" r="3"/><circle cx="880" cy="410" r="3"/><circle cx="900" cy="410" r="3"/><circle cx="860" cy="430" r="3"/><circle cx="880" cy="430" r="3"/><circle cx="900" cy="430" r="3"/></g><g stroke="#FFFFFF" stroke-width="1" opacity="0.3"><line x1="100" y1="100" x2="200" y2="100"/><line x1="1000" y1="100" x2="1100" y2="100"/><line x1="100" y1="530" x2="200" y2="530"/><line x1="1000" y1="530" x2="1100" y2="530"/></g></svg>
