<?xml version="1.0" encoding="UTF-8"?>
<svg width="1200" height="630" viewBox="0 0 1200 630" xmlns="http://www.w3.org/2000/svg">
  <!-- 背景渐变 -->
  <defs>
    <linearGradient id="bgGradient" x1="0%" y1="0%" x2="100%" y2="100%">
      <stop offset="0%" style="stop-color:#FF416C;stop-opacity:1" />
      <stop offset="100%" style="stop-color:#FF4B2B;stop-opacity:1" />
    </linearGradient>
    <!-- 几何形状渐变 -->
    <linearGradient id="shapeGradient" x1="0%" y1="0%" x2="100%" y2="0%">
      <stop offset="0%" style="stop-color:#FFFFFF;stop-opacity:0.2" />
      <stop offset="50%" style="stop-color:#FFFFFF;stop-opacity:0.4" />
      <stop offset="100%" style="stop-color:#FFFFFF;stop-opacity:0.2" />
    </linearGradient>
  </defs>
  
  <!-- 背景 -->
  <rect width="100%" height="100%" fill="url(#bgGradient)"/>
  
  <!-- 动态几何形状 -->
  <g transform="translate(600,315)" fill="url(#shapeGradient)">
    <!-- 中心多边形 -->
    <path d="M0,-100 L86.6,-50 L86.6,50 L0,100 L-86.6,50 L-86.6,-50 Z" 
          transform="rotate(30)"/>
    
    <!-- 外围装饰形状 -->
    <g opacity="0.6">
      <path d="M-200,-100 L-150,-150 L-100,-100 L-150,-50 Z"/>
      <path d="M100,-100 L150,-150 L200,-100 L150,-50 Z"/>
      <path d="M-200,100 L-150,50 L-100,100 L-150,150 Z"/>
      <path d="M100,100 L150,50 L200,100 L150,150 Z"/>
    </g>
  </g>
  
  <!-- 动态线条 -->
  <g stroke="#FFFFFF" stroke-width="2" opacity="0.3">
    <line x1="200" y1="100" x2="400" y2="100"/>
    <line x1="800" y1="100" x2="1000" y2="100"/>
    <line x1="200" y1="530" x2="400" y2="530"/>
    <line x1="800" y1="530" x2="1000" y2="530"/>
  </g>
  
  <!-- 点阵装饰 -->
  <g fill="#FFFFFF" opacity="0.4">
    <circle cx="200" cy="315" r="4"/>
    <circle cx="220" cy="315" r="4"/>
    <circle cx="240" cy="315" r="4"/>
    <circle cx="960" cy="315" r="4"/>
    <circle cx="980" cy="315" r="4"/>
    <circle cx="1000" cy="315" r="4"/>
  </g>
  
  <!-- 光晕效果 -->
  <g fill="none" stroke="#FFFFFF" opacity="0.2">
    <circle cx="600" cy="315" r="250"/>
    <circle cx="600" cy="315" r="200"/>
    <circle cx="600" cy="315" r="150"/>
  </g>
</svg>