<?xml version="1.0" encoding="UTF-8"?>
<svg width="1200" height="630" viewBox="0 0 1200 630" xmlns="http://www.w3.org/2000/svg">
  <!-- 背景渐变 -->
  <defs>
    <linearGradient id="bgGradient" x1="0%" y1="0%" x2="100%" y2="100%">
      <stop offset="0%" style="stop-color:#FF0F7B;stop-opacity:1" />
      <stop offset="100%" style="stop-color:#F89B29;stop-opacity:1" />
    </linearGradient>
    <!-- 波形渐变 -->
    <linearGradient id="waveformGradient" x1="0%" y1="0%" x2="0%" y2="100%">
      <stop offset="0%" style="stop-color:#FFFFFF;stop-opacity:0.8" />
      <stop offset="100%" style="stop-color:#FFFFFF;stop-opacity:0.2" />
    </linearGradient>
  </defs>
  
  <!-- 背景 -->
  <rect width="100%" height="100%" fill="url(#bgGradient)"/>
  
  <!-- 音频波形 -->
  <g transform="translate(200,315)" fill="url(#waveformGradient)">
    <rect x="0" y="-100" width="20" height="200"/>
    <rect x="30" y="-80" width="20" height="160"/>
    <rect x="60" y="-120" width="20" height="240"/>
    <rect x="90" y="-60" width="20" height="120"/>
    <rect x="120" y="-90" width="20" height="180"/>
    <rect x="150" y="-140" width="20" height="280"/>
    <rect x="180" y="-70" width="20" height="140"/>
    <rect x="210" y="-110" width="20" height="220"/>
    <rect x="240" y="-50" width="20" height="100"/>
    <rect x="270" y="-130" width="20" height="260"/>
    <rect x="300" y="-80" width="20" height="160"/>
    <rect x="330" y="-100" width="20" height="200"/>
    <rect x="360" y="-60" width="20" height="120"/>
    <rect x="390" y="-90" width="20" height="180"/>
    <rect x="420" y="-120" width="20" height="240"/>
    <rect x="450" y="-70" width="20" height="140"/>
    <rect x="480" y="-110" width="20" height="220"/>
    <rect x="510" y="-50" width="20" height="100"/>
    <rect x="540" y="-130" width="20" height="260"/>
    <rect x="570" y="-80" width="20" height="160"/>
  </g>
  
  <!-- 圆形装饰 -->
  <g fill="none" stroke="#FFFFFF" opacity="0.3">
    <circle cx="900" cy="315" r="120"/>
    <circle cx="900" cy="315" r="100"/>
    <circle cx="900" cy="315" r="80"/>
  </g>
  
  <!-- 动态线条 -->
  <g stroke="#FFFFFF" stroke-width="2" opacity="0.5">
    <line x1="800" y1="215" x2="1000" y2="215"/>
    <line x1="820" y1="265" x2="980" y2="265"/>
    <line x1="840" y1="315" x2="960" y2="315"/>
    <line x1="820" y1="365" x2="980" y2="365"/>
    <line x1="800" y1="415" x2="1000" y2="415"/>
  </g>
</svg> 